<?xml version="1.0" encoding="UTF-8" standalone="no"?>
<svg
   xmlns:dc="http://purl.org/dc/elements/1.1/"
   xmlns:cc="http://creativecommons.org/ns#"
   xmlns:rdf="http://www.w3.org/1999/02/22-rdf-syntax-ns#"
   xmlns:svg="http://www.w3.org/2000/svg"
   xmlns="http://www.w3.org/2000/svg"
   xmlns:sodipodi="http://sodipodi.sourceforge.net/DTD/sodipodi-0.dtd"
   xmlns:inkscape="http://www.inkscape.org/namespaces/inkscape"
   width="80"
   height="80"
   viewBox="0 0 21.166666 21.166667"
   version="1.1"
   id="svg39"
   inkscape:version="1.0.1 (3bc2e813f5, 2020-09-07)"
   sodipodi:docname="Main-Logo.svg"
   inkscape:export-filename="C:\Users\Sam\Desktop\Never-Forget\Main-Logo.png"
   inkscape:export-xdpi="96"
   inkscape:export-ydpi="96">
  <defs
     id="defs33" />
  <sodipodi:namedview
     id="base"
     pagecolor="#ffffff"
     bordercolor="#666666"
     borderopacity="1.0"
     inkscape:pageopacity="0.0"
     inkscape:pageshadow="2"
     inkscape:zoom="7.9195959"
     inkscape:cx="8.4746448"
     inkscape:cy="40.662293"
     inkscape:document-units="mm"
     inkscape:current-layer="layer1"
     inkscape:document-rotation="0"
     showgrid="false"
     units="px"
     inkscape:window-width="2498"
     inkscape:window-height="1057"
     inkscape:window-x="2552"
     inkscape:window-y="-5"
     inkscape:window-maximized="1" />
  <metadata
     id="metadata36">
    <rdf:RDF>
      <cc:Work
         rdf:about="">
        <dc:format>image/svg+xml</dc:format>
        <dc:type
           rdf:resource="http://purl.org/dc/dcmitype/StillImage" />
        <dc:title />
      </cc:Work>
    </rdf:RDF>
  </metadata>
  <g
     inkscape:label="Layer 1"
     inkscape:groupmode="layer"
     id="layer1">
    <path
       style="fill:#000000;stroke-width:0.0241068"
       d="m 12.376609,19.445075 c -0.03311,-0.01033 -0.136207,-0.04183 -0.229016,-0.07001 -0.394674,-0.119813 -0.670564,-0.311372 -0.784739,-0.544873 -0.05082,-0.103967 -0.0582,-0.152806 -0.0582,-0.38428 1.7e-5,-0.406659 0.02632,-0.513558 0.233949,-0.952217 0.205953,-0.435084 0.269173,-0.626384 0.326625,-0.988377 0.03663,-0.230521 0.01787,-0.967311 -0.02818,-1.108917 -0.05116,-0.157376 -0.199542,-0.470186 -0.302981,-0.638826 -0.04067,-0.06631 -0.08031,-0.138637 -0.08807,-0.160768 -0.01165,-0.03337 -0.04958,-0.04024 -0.222755,-0.04007 C 10.585083,14.557081 9.7981959,14.31939 9.2689718,13.96638 8.9513374,13.754509 8.413263,13.15524 8.2501794,12.831723 c -0.027481,-0.05452 -0.054248,-0.103795 -0.059436,-0.109566 -0.0053,-0.0062 -0.050024,0.02766 -0.099479,0.07433 C 8.041766,12.843166 7.947056,12.9233 7.880763,12.974602 7.814457,13.025942 7.7149221,13.11176 7.6595394,13.165418 7.2193107,13.591899 6.4690313,14.027829 6.0486441,14.101371 5.1352189,14.261158 4.6768417,14.220026 4.3338974,13.947485 3.9665955,13.655591 3.8929394,13.578422 3.7851767,13.372521 c -0.0664,-0.12692 -0.207503,-0.54475 -0.2445424,-0.724284 -0.00441,-0.01989 -0.00907,-0.03619 -0.011092,-0.03619 -0.00176,0 -0.00881,-0.02712 -0.014178,-0.06022 C 3.4917502,12.417255 3.3678189,12.108937 3.1906008,11.744231 2.9576036,11.264729 2.7614518,10.999669 2.2348698,10.45276 2.0232985,10.233026 1.8141838,9.9997909 1.7701611,9.9344656 1.7261297,9.8691231 1.6712048,9.7939967 1.6480705,9.7674716 1.62491,9.7409651 1.5853696,9.6812577 1.5601836,9.6348844 1.5349976,9.5884754 1.4679023,9.4799987 1.4111632,9.3938204 0.90385835,8.6231978 0.64807909,7.5131454 0.76879597,6.6059643 0.85139914,5.9853043 1.0141661,5.3994382 1.2272083,4.9560582 1.4669688,4.457093 1.9576739,4.1153817 2.5531916,4.0326994 c 0.053013,-0.00704 0.1560917,-0.021839 0.2290079,-0.032144 0.1904716,-0.026948 0.8968783,-0.015676 1.0442166,0.016644 0.3328785,0.073004 0.4795822,0.1264411 0.8963846,0.3265467 0.1458419,0.07001 0.3248395,0.1491259 0.3977644,0.1757916 0.072912,0.026682 0.1997791,0.081987 0.2818987,0.1229981 0.082164,0.04095 0.1590938,0.074502 0.1710352,0.074502 0.011913,0 0.041394,0.021663 0.06534,0.048171 0.024039,0.026507 0.053109,0.048171 0.064732,0.048171 0.019724,0 0.2201662,0.1332305 0.5259213,0.3495839 0.072912,0.051604 0.1774569,0.134164 0.2322848,0.1834618 0.054856,0.049314 0.1361985,0.1081417 0.1808019,0.1307565 0.044649,0.022632 0.1011207,0.058649 0.1255967,0.080138 0.050461,0.044296 0.061381,0.034344 0.1904717,-0.1733786 0.2550571,-0.4103739 1.0141964,-0.9776058 1.6976189,-1.268478 0.095031,-0.040421 0.1824922,-0.073533 0.1943543,-0.073533 0.011913,0 0.064281,-0.02043 0.1165025,-0.04544 0.2895339,-0.1385408 1.0380429,-0.2120469 1.7100779,-0.1679185 0.858017,0.056359 1.638202,0.458553 2.390041,1.232196 l 0.316859,0.3260446 0.05109,-0.155484 c 0.114,-0.3473032 0.492704,-1.0450798 0.658649,-1.2136324 0.157123,-0.1595879 0.219392,-0.2119063 0.522206,-0.4387479 0.15131,-0.1133453 0.356787,-0.2311742 0.538259,-0.3086523 0.09656,-0.041214 0.197252,-0.084541 0.223769,-0.096164 0.300981,-0.1323939 1.088916,-0.3383558 1.337924,-0.3497248 0.2363,-0.010828 0.944407,0.050108 1.220467,0.1049093 0.68136,0.135344 1.590999,0.8444365 1.968412,1.5344636 0.07987,0.1459734 0.30055,0.7039409 0.343278,0.8678439 0.02421,0.092819 0.06358,0.2131479 0.08744,0.2674124 0.155502,0.3527448 0.217367,0.8553218 0.155309,1.2615912 -0.02114,0.1382423 -0.03839,0.2827273 -0.03839,0.3210867 0,0.1001675 -0.191027,0.6541334 -0.250858,0.7274634 -0.02775,0.033994 -0.08844,0.1115384 -0.134851,0.1722504 -0.04642,0.06068 -0.100643,0.1301503 -0.120525,0.1542953 -0.01991,0.024131 -0.09583,0.1179587 -0.168748,0.2084813 -0.07292,0.09053 -0.193112,0.2299856 -0.267095,0.3099117 -0.190506,0.2058114 -0.485984,0.6057507 -0.552631,0.7479894 -0.146457,0.3125802 -0.148518,0.3312676 -0.140073,1.2739653 l 0.0079,0.847429 -0.08833,0.192849 c -0.09688,0.211502 -0.222141,0.373723 -0.333796,0.432286 -0.03964,0.02078 -0.105966,0.05556 -0.147408,0.07723 -0.103504,0.05415 -0.670689,0.09268 -0.85718,0.0582 -0.07538,-0.01391 -0.273347,-0.02624 -0.439954,-0.02739 -0.166625,-8.79e-4 -0.362608,-0.01071 -0.435525,-0.0214 -0.07292,-0.01059 -0.251914,-0.03233 -0.397764,-0.04817 -0.295417,-0.03206 -0.638553,-0.120367 -0.816,-0.210066 -0.06428,-0.0325 -0.119163,-0.05565 -0.121929,-0.05143 -0.01374,0.02088 -0.110003,0.361445 -0.135062,0.477733 -0.06261,0.290732 -0.20362,0.676008 -0.319212,0.872353 l -0.06631,0.112677 0.02333,0.386922 c 0.02394,0.397193 -6.09e-4,0.979589 -0.04738,1.123097 -0.02413,0.07415 -0.03805,0.138134 -0.107249,0.494192 -0.02192,0.11269 -0.05468,0.248292 -0.07283,0.301333 -0.01815,0.05302 -0.05116,0.156092 -0.07336,0.229017 -0.166625,0.547515 -0.47908,1.044604 -1.037974,1.651314 -0.207636,0.225398 -0.394726,0.436934 -0.415764,0.470082 -0.02104,0.03311 -0.06922,0.100552 -0.107036,0.149794 -0.143949,0.187329 -0.184352,0.340382 -0.191873,0.726811 -0.0071,0.377774 -0.01849,0.412399 -0.139431,0.432557 -0.03311,0.0052 -0.08735,0.0016 -0.120525,-0.0089 z m 0.138646,-0.222447 c 0.01205,-0.05681 0.01717,-0.195422 0.01126,-0.308106 -0.01152,-0.219304 0.03751,-0.480341 0.104005,-0.553811 0.01947,-0.02149 0.03539,-0.04684 0.03539,-0.05627 0,-0.05292 0.275972,-0.399973 0.536709,-0.675012 0.347603,-0.366652 0.488221,-0.526801 0.527761,-0.601048 0.0155,-0.02914 0.06984,-0.108189 0.1207,-0.175687 0.05089,-0.06753 0.09249,-0.130918 0.09249,-0.140917 0,-0.01007 0.02016,-0.04702 0.04474,-0.08216 0.145242,-0.207643 0.317325,-0.689973 0.478675,-1.34164 l 0.113405,-0.458034 6.96e-4,-0.518295 c 0.0016,-1.04774 -0.141015,-1.766228 -0.463493,-2.338357 -0.04861,-0.08622 -0.112095,-0.207283 -0.141158,-0.269112 -0.08892,-0.189248 -0.222648,-0.381534 -0.35064,-0.504248 -0.117217,-0.112386 -0.142477,-0.190914 -0.06138,-0.190914 0.08243,0 0.374946,0.362266 0.483853,0.599225 0.02862,0.06225 0.103198,0.205567 0.165752,0.318506 0.140822,0.254204 0.259874,0.579078 0.344425,0.939846 0.03558,0.151732 0.06922,0.290652 0.07477,0.308722 0.01965,0.06411 0.0752,-0.01902 0.131063,-0.196168 0.03021,-0.0958 0.07441,-0.213553 0.09828,-0.261689 0.05037,-0.101623 0.146652,-0.478296 0.193298,-0.756224 0.03462,-0.206225 0.04289,-1.373459 0.01099,-1.530783 -0.0094,-0.04642 -0.02192,-0.4803216 -0.02766,-0.9642721 C 15.023771,8.1689494 14.940271,7.6892613 14.621902,7.0675449 14.39094,6.6165477 12.882191,4.9365422 12.461161,4.6615476 12.368354,4.6009599 12.230303,4.5072787 12.154393,4.4534369 c -0.0759,-0.053806 -0.145013,-0.0979 -0.153546,-0.0979 -0.0089,0 -0.07662,-0.036545 -0.151249,-0.081281 C 11.651184,4.1554323 11.412868,4.067721 11.099133,3.9980543 10.739396,3.918181 9.7039681,3.9083615 9.3875488,3.9818503 9.2881094,4.0049231 9.168782,4.0272904 9.122373,4.0316058 8.9044257,4.0516843 8.0686552,4.4865924 7.6897102,4.7771301 6.7851794,5.4706357 6.2964475,6.6732872 6.3768488,8.0077588 c 0.069483,1.1534764 0.4091499,2.2374632 0.9253309,2.9530802 0.4028807,0.558532 0.6625339,0.983374 0.8250721,1.349981 0.517432,1.167038 1.3583902,1.865837 2.4504352,2.036186 0.144105,0.02245 0.285129,0.04587 0.31338,0.05196 0.104867,0.02264 0.389926,0.03082 0.420263,0.01204 0.02473,-0.01524 0.0163,-0.0575 -0.03944,-0.198002 -0.08075,-0.203443 -0.09944,-0.264382 -0.199209,-0.648682 -0.06042,-0.232671 -0.12741,-0.389573 -0.416952,-0.976319 -0.36644,-0.742601 -0.406983,-0.868408 -0.318585,-0.988536 0.04279,-0.0582 0.04774,-0.04738 0.08701,0.193 0.01514,0.09281 0.04738,0.201286 0.0716,0.241064 0.203865,0.335141 0.568155,1.120101 0.648883,1.398203 0.02695,0.09281 0.07696,0.266382 0.111261,0.385708 0.03426,0.119335 0.07221,0.23866 0.08436,0.265176 0.01218,0.02651 0.04984,0.118276 0.08366,0.203919 0.0339,0.0856 0.14009,0.296948 0.236027,0.469596 0.297845,0.536032 0.312614,0.589292 0.324732,1.170657 0.01461,0.70352 -0.04755,0.989855 -0.361463,1.663371 -0.194294,0.416881 -0.220828,0.512783 -0.220105,0.795517 8.8e-4,0.465987 0.148931,0.642844 0.704645,0.843443 0.347673,0.125491 0.379613,0.124987 0.407653,-0.0062 z m 0.488134,-2.419603 c -0.04561,-0.02651 -0.111671,-0.03197 -0.271208,-0.02228 -0.191994,0.01165 -0.210927,0.0089 -0.210927,-0.03074 0,-0.07979 0.323719,-0.126999 0.512262,-0.07459 0.07837,0.02175 0.09039,0.03452 0.09039,0.09629 0,0.07864 -0.02722,0.08569 -0.120528,0.03134 z m -0.506247,-0.766114 c 0,-0.01902 0.03205,-0.05733 0.07125,-0.08525 0.251991,-0.179437 0.604993,-0.211491 0.818713,-0.07432 0.0819,0.05257 0.117139,0.08862 0.10169,0.104045 -0.01297,0.01297 -0.01787,0.03857 -0.01086,0.0569 0.02042,0.05336 -0.03363,0.03857 -0.139253,-0.03795 -0.170613,-0.123585 -0.455225,-0.11821 -0.69391,0.0131 -0.121969,0.0671 -0.147629,0.07115 -0.147629,0.02351 z m -0.03436,-0.803381 c -0.05037,-0.05037 0.0026,-0.09714 0.209184,-0.184942 0.40834,-0.173529 0.651553,-0.203003 0.882649,-0.106958 0.107818,0.04482 0.169405,0.117323 0.09964,0.117323 -0.01331,0 -0.02413,0.0163 -0.02413,0.03619 0,0.04518 0.0097,0.04694 -0.130639,-0.02421 -0.210163,-0.106614 -0.464929,-0.07775 -0.845917,0.09588 -0.09731,0.04438 -0.183171,0.07441 -0.190806,0.06675 z M 9.0860297,10.322983 C 8.7292337,10.260462 8.4309459,9.9757146 8.3352302,9.6063524 8.2668987,9.3427002 8.2753441,8.7859652 8.3498443,8.6353856 8.4400175,8.4532811 8.6795432,8.2137488 8.788503,8.1967082 c 0.1188719,-0.018585 0.3850207,0.069126 0.5068831,0.167039 0.087804,0.070542 0.4053361,0.4708204 0.4053361,0.5109324 0,0.0098 0.015846,0.051864 0.035225,0.093655 0.1506495,0.3247866 0.2031705,0.8009601 0.1071834,0.9718473 -0.093747,0.1669231 -0.216282,0.2954771 -0.3076996,0.3228301 -0.2697546,0.08075 -0.3045757,0.08532 -0.4494486,0.05997 z M 8.6224396,9.8487282 c -0.035661,-0.035661 0.025363,-0.3401262 0.084984,-0.4238303 0.028448,-0.039977 0.044822,-0.07961 0.036362,-0.087976 -0.00887,-0.00887 -0.00264,-0.015329 0.012708,-0.015329 0.015501,0 0.028355,-0.013555 0.028712,-0.030115 3.441e-4,-0.01656 0.070356,-0.06534 0.1556786,-0.1084806 0.1791021,-0.090478 0.3966353,-0.1057404 0.6052741,-0.042439 0.065076,0.019723 0.1200103,0.036019 0.1220489,0.036191 C 9.6807837,9.1776296 9.5669952,8.9096449 9.5156831,8.8176448 9.3382713,8.4995353 8.9529963,8.2687304 8.7648133,8.3678111 8.6651223,8.4202974 8.4796834,8.6241179 8.4371318,8.7279534 c -0.083832,0.2045181 -0.028885,0.8893662 0.082429,1.0276257 0.026686,0.033107 0.060588,0.087354 0.075294,0.1205266 0.017527,0.039447 0.030817,0.049137 0.038653,0.028011 0.00622,-0.017698 0.00171,-0.042625 -0.01112,-0.055307 z m 1.7433574,0.3736078 c -0.03539,-0.0922 0.426912,-0.5898993 0.642809,-0.6920351 0.41911,-0.1982741 0.950914,-0.1715119 1.458042,0.073362 l 0.222623,0.1075142 -0.04183,0.057504 c -0.05089,0.070012 -0.0819,0.073097 -0.135801,0.013569 -0.107475,-0.1187662 -0.591053,-0.2671827 -0.870302,-0.2671046 -0.217436,7.15e-5 -0.473188,0.054155 -0.631121,0.133416 -0.151487,0.076089 -0.586271,0.5145525 -0.586271,0.5912815 0,0.03689 -0.04218,0.02413 -0.05813,-0.01753 z m 2.753187,-0.5161828 c -0.377545,-0.1993739 -0.402247,-0.854185 -0.05452,-1.4448147 0.193641,-0.3289073 0.325833,-0.4394528 0.479424,-0.4008989 0.2585,0.064903 0.519272,0.5291536 0.523376,0.9317868 0.0016,0.1866582 -0.0701,0.5168773 -0.134014,0.6143815 -0.183162,0.2795291 -0.577491,0.424586 -0.814266,0.2995453 z M 12.955175,9.0049953 c 0,-0.013383 0.01356,-0.038388 0.03011,-0.055478 0.01656,-0.017089 0.06165,-0.071072 0.100048,-0.1199972 0.03867,-0.04923 0.0841,-0.083488 0.10169,-0.076697 0.01743,0.00701 0.03822,0.00171 0.04606,-0.010854 0.0079,-0.012708 0.09572,-0.023072 0.195314,-0.023072 0.206164,0 0.347462,0.072382 0.44987,0.2305402 0.07749,0.1196662 0.08943,0.1046814 0.08943,-0.1123195 0,-0.2443666 -0.04509,-0.4016033 -0.175184,-0.6111131 -0.225933,-0.363773 -0.44218,-0.3230958 -0.675591,0.127065 -0.144714,0.2790897 -0.271947,0.7444933 -0.189626,0.6936192 0.01533,-0.00953 0.02792,-0.028262 0.02792,-0.041658 z M 5.7320131,14.034877 c 0.3530355,-0.05407 0.6261022,-0.144661 0.9071814,-0.300832 0.388984,-0.216134 0.6524509,-0.405461 0.9910004,-0.712123 0.087804,-0.07952 0.204289,-0.180318 0.2588087,-0.223908 0.054512,-0.04359 0.1262982,-0.114888 0.159491,-0.158428 L 8.10891,12.560411 8.0260441,12.363853 C 7.8951258,12.053444 7.7918409,11.87707 7.46554,11.406742 7.0748484,10.843606 7.0214473,10.762288 6.9553556,10.629885 6.7709862,10.260523 6.6104482,9.8461429 6.462475,9.3576652 6.4423939,9.2913589 6.4092871,9.1340732 6.3888485,9.0081167 6.3272019,8.6280799 6.3251766,8.6154871 6.3012301,8.4657097 6.249538,8.1423858 6.2431046,7.3909258 6.2898459,7.1426501 L 6.333529,6.9104367 6.2634366,6.8366384 C 5.8350296,6.3859823 5.295933,6.0137132 4.9388816,5.9220137 4.4782593,5.803718 3.7118813,5.7614039 3.204004,5.8262095 2.6805659,5.8929612 2.5878972,5.9074917 2.4151086,5.9498506 1.8592545,6.0859961 1.2076231,6.5157435 1.0204626,6.8696166 c -0.0265953,0.050289 -0.0723,0.1153508 -0.10158125,0.1446253 -0.0879745,0.087976 -0.0726522,0.4578755 0.0412134,0.9934215 0.15215535,0.7155921 0.72169445,1.7387091 1.24801215,2.2419276 0.2470521,0.236211 0.6369426,0.688583 0.7895383,0.916058 0.2506186,0.373608 0.5453657,1.019322 0.6390824,1.400072 0.1853551,0.753026 0.3495312,1.015834 0.8449311,1.352525 0.1949355,0.132491 0.7866399,0.187663 1.250381,0.116581 z M 17.866074,12.288514 c 0.413825,-0.02975 0.600369,-0.145199 0.732332,-0.453066 0.02712,-0.06341 0.06763,-0.153193 0.08985,-0.199621 0.03559,-0.07415 0.0391,-0.157527 0.02941,-0.687094 -0.01885,-1.0276081 -0.01717,-1.0964123 0.03037,-1.2414956 0.09099,-0.2777077 0.331514,-0.6461459 0.629511,-0.9642741 0.12103,-0.1292103 0.379755,-0.4420766 0.634371,-0.7671437 0.0693,-0.088532 0.136497,-0.19351 0.149213,-0.233287 0.01271,-0.039805 0.04959,-0.1428304 0.0819,-0.2290164 0.05787,-0.1541458 0.123864,-0.533681 0.152209,-0.87496 C 20.41514,6.3988478 20.3676,6.0491497 20.281737,5.8032867 20.242128,5.6898433 20.187086,5.5210886 20.159459,5.4282788 20.017502,4.9513028 19.992245,4.9233604 19.427814,4.6187063 18.823973,4.292776 18.590106,4.2326026 17.931746,4.2337738 c -0.540293,8.806e-4 -0.644754,0.023689 -1.384695,0.3011667 -0.435551,0.1633307 -0.581049,0.2707941 -1.217392,0.8991152 -0.509508,0.5030871 -0.67297,0.6893401 -0.802256,0.9141298 -0.0568,0.098698 -0.09595,0.1441859 -0.111115,0.1290252 -0.02809,-0.027997 0.06517,-0.2476151 0.143455,-0.3377752 0.0288,-0.033107 0.06192,-0.078379 0.07363,-0.1005513 0.05724,-0.108216 0.336814,-0.4013385 0.853789,-0.895161 0.469764,-0.4487253 0.679979,-0.5957641 1.023742,-0.7160495 0.847175,-0.296438 0.924441,-0.3125006 1.44641,-0.3007002 0.413896,0.00933 0.63894,0.024394 0.735254,0.049052 0.03311,0.00881 0.08357,0.019813 0.112108,0.025186 0.02853,0.00528 0.115298,0.040949 0.192849,0.07908 0.07759,0.038132 0.16814,0.077497 0.201287,0.087447 0.07221,0.021663 0.57277,0.2950642 0.632953,0.3456829 C 20.03401,4.8835207 19.673798,4.285458 19.385936,3.9732039 19.144328,3.7111283 18.713778,3.3908253 18.371916,3.218838 18.054555,3.0591798 17.859179,3.017887 17.249649,2.9816667 17.015701,2.9677528 16.799173,2.9525174 16.768455,2.9478504 16.573431,2.918085 15.767452,3.1418886 15.197083,3.3841852 c -0.326949,0.138902 -0.843775,0.5102022 -1.078525,0.7748494 -0.1665,0.1877066 -0.65716,1.1503503 -0.65716,1.2893138 0,0.019198 0.268265,0.3384528 0.347998,0.4141253 0.01409,0.013386 0.09596,0.1056042 0.181894,0.2049145 0.08595,0.099294 0.163155,0.1859711 0.171618,0.1926018 0.06155,0.048171 0.468679,0.5863511 0.503826,0.6659332 0.02413,0.054684 0.08735,0.1902864 0.140442,0.3013339 0.107581,0.2250109 0.202598,0.5020222 0.259435,0.7563659 0.04492,0.2010736 0.09203,1.3913964 0.06984,1.7641235 -0.0095,0.1593494 -4.15e-4,0.3875825 0.02597,0.6508825 0.03092,0.30881 0.03735,0.52969 0.02677,0.926389 l -0.01391,0.520901 0.06518,0.06076 c 0.126231,0.117681 0.452926,0.2273 0.777473,0.260878 0.117826,0.01218 0.264584,0.03346 0.326132,0.04729 0.06155,0.01384 0.338576,0.03382 0.615605,0.04456 0.27702,0.01071 0.510872,0.02669 0.51966,0.03549 0.01912,0.01912 0.03909,0.01876 0.386773,-0.0062 z M 1.0023128,6.6938064 C 1.1326907,6.5255629 1.624311,6.1286351 1.8050957,6.0456537 2.0234658,5.94542 2.5964745,5.7689772 2.6217046,5.7942073 c 0.00617,0.00617 0.069746,6.781e-4 0.1404077,-0.013039 0.070626,-0.013738 0.188138,-0.030822 0.261063,-0.037955 0.072916,-0.00704 0.1651271,-0.018316 0.2049051,-0.025009 0.1365242,-0.022808 0.923403,-0.030294 1.0643561,-0.010127 0.9608218,0.1374136 1.2032676,0.252802 1.8782449,0.893972 C 6.3490013,6.77143 6.37402,6.7878365 6.37402,6.7353594 6.37402,6.6912384 6.5870973,6.0158306 6.6184913,5.9604916 6.7851066,5.6667135 6.784675,5.6834895 6.6278892,5.60263 6.5704129,5.5730456 6.4761996,5.5089091 6.4185533,5.4601753 5.9068095,5.0275566 5.4060392,4.7142106 5.0378379,4.5962326 4.9857924,4.5795005 4.8122035,4.5008955 4.6521301,4.4214538 4.0903501,4.1426286 3.8624604,4.0891301 3.233012,4.08832 2.1035151,4.0865588 1.517244,4.4196485 1.2244519,5.2284638 1.1287097,5.4929523 0.9720984,6.0739394 0.93730466,6.2937268 0.91608113,6.427618 0.88860554,6.589223 0.87618886,6.6528486 0.84316549,6.8220439 0.84721609,6.9133304 0.88508424,6.8533504 0.90084739,6.8283449 0.95359712,6.7565716 1.0022869,6.693772 Z"
       id="path22" />
    <path
       style="fill:#000000;stroke-width:0.126269;fill-opacity:0"
       d="M 17.856842,52.859962 C 16.684316,52.544309 15.357527,51.385574 14.718011,50.118701 14.515072,49.716682 14.183755,48.802438 13.981751,48.087049 13.49832,46.375 13.126706,45.413648 12.351359,43.869278 11.559846,42.292711 10.635211,41.05603 8.7379429,39.036411 7.0933688,37.28578 6.0529818,35.814522 5.0694008,33.848563 3.9619847,31.635084 3.3607473,29.435195 3.3607473,27.596707 c 0,-0.734459 0.039159,-0.840167 0.6149878,-1.660117 1.3322535,-1.89706 3.7062038,-3.192906 6.7262919,-3.671616 1.873771,-0.29701 5.638569,-0.293707 7.116529,0.0062 1.709985,0.347039 3.391007,1.335245 5.260495,3.092434 l 0.766195,0.72017 -0.156504,1.196753 c -0.329234,2.517596 0.172881,6.712079 1.140883,9.530512 0.788355,2.29537 1.464051,3.608562 3.094598,6.014231 1.343297,1.98187 2.584374,4.193925 2.584374,4.606301 0,0.08719 -0.468774,0.586339 -1.04172,1.109221 -2.819926,2.573515 -4.913379,3.832615 -7.157066,4.304588 -1.099602,0.231309 -3.617211,0.239526 -4.452969,0.01454 z"
       id="path78"
       transform="scale(0.26458333)" />
    <path
       style="fill:#000000;stroke-width:0.126269;fill-opacity:0"
       d="m 3.3607473,25.372053 c 0,-0.518127 0.5521839,-3.033309 0.9653973,-4.397357 0.757298,-2.499896 1.640705,-3.768187 3.1582528,-4.534242 1.2440873,-0.628013 2.0637053,-0.793886 4.2732426,-0.864809 2.52162,-0.08094 3.308091,0.06942 5.482807,1.048192 3.850277,1.732899 4.235549,1.953771 6.800321,3.89854 0.549531,0.416687 1.094528,0.814435 1.211106,0.883883 0.193941,0.115533 0.185269,0.176018 -0.101996,0.711404 -0.172677,0.321825 -0.505955,1.219216 -0.740619,1.994203 -0.380793,1.257589 -0.445777,1.385758 -0.604493,1.192236 -0.09781,-0.119257 -0.689223,-0.664815 -1.314255,-1.21235 -2.112653,-1.850708 -3.906718,-2.467154 -7.513009,-2.581493 -1.681585,-0.05331 -2.448763,-0.01586 -3.977476,0.194205 -3.2352884,0.444565 -4.8099462,1.15468 -6.769097,3.052627 -0.6120018,0.592883 -0.8701817,0.775339 -0.8701817,0.614961 z"
       id="path80"
       transform="scale(0.26458333)" />
    <path
       style="fill:#000000;stroke-width:0.126269;fill-opacity:0"
       d="m 46.039692,72.689921 c -2.108582,-0.749991 -2.70229,-1.341233 -2.859767,-2.847893 -0.101714,-0.973155 0.05212,-1.556592 0.979982,-3.716811 0.414949,-0.966067 0.832929,-2.104384 0.928843,-2.529594 0.265613,-1.177523 0.351711,-3.025604 0.209387,-4.49445 -0.127555,-1.316397 -0.133137,-1.33227 -1.265614,-3.598668 -0.781887,-1.564772 -1.261418,-2.71066 -1.533893,-3.6654 -0.492441,-1.725495 -1.046295,-3.082115 -2.0878,-5.113897 -0.461032,-0.899385 -0.87128,-1.890693 -0.95367,-2.30441 -0.151536,-0.760917 -0.230271,-0.847833 -0.487386,-0.538028 -0.269177,0.324337 -0.03366,1.024252 1.317635,3.915725 0.80527,1.723102 1.43052,3.257382 1.646631,4.04061 0.191623,0.69448 0.455113,1.534695 0.585531,1.867144 0.130419,0.332448 0.237126,0.630759 0.237126,0.662912 0,0.138507 -1.326448,0.03903 -2.644711,-0.198347 -2.692353,-0.4848 -4.368339,-1.335442 -6.211161,-3.152457 -1.395655,-1.37611 -1.992382,-2.250638 -3.247809,-4.759794 -0.494433,-0.988195 -1.558446,-2.772871 -2.371347,-3.977475 -2.127523,-3.152684 -2.924504,-5.000277 -3.650602,-8.462966 -0.442574,-2.110592 -0.566221,-5.540086 -0.263724,-7.314716 0.51806,-3.039253 1.865273,-5.699578 3.840342,-7.583474 1.574876,-1.502178 4.95567,-3.349195 6.783464,-3.705986 2.293618,-0.447721 6.040492,-0.346237 7.852302,0.212681 1.108275,0.341887 2.094986,0.843452 3.510625,1.784519 2.276867,1.513584 7.77986,7.525358 8.927034,9.752387 1.234574,2.396702 1.43005,3.942837 1.564545,12.374935 0.07797,4.888238 0.06462,5.536374 -0.13385,6.500816 -0.185492,0.901359 -1.104498,3.734768 -1.262656,3.892927 -0.02692,0.02692 -0.11102,-0.198279 -0.186885,-0.500443 -0.680422,-2.710035 -2.042972,-5.697439 -3.18091,-6.974177 -0.626682,-0.703121 -0.990899,-0.891654 -0.990899,-0.512926 0,0.108069 0.287491,0.548432 0.63887,0.978585 0.355493,0.43519 1.029333,1.566206 1.519165,2.549864 1.370223,2.751614 1.75563,4.664338 1.75555,8.712566 -4.4e-5,2.201322 -0.01419,2.326483 -0.449539,3.977475 -1.094597,4.151074 -1.762064,5.394702 -4.5067,8.396893 -1.633814,1.787131 -2.414758,2.85517 -2.615099,3.576481 -0.0709,0.25527 -0.129228,0.936638 -0.129614,1.51415 -6.32e-4,0.970653 -0.131821,1.54234 -0.352387,1.535832 -0.04964,-0.0015 -0.459597,-0.13403 -0.911009,-0.29459 z M 49.701495,63.3876 c 0,-0.315199 -0.446295,-0.501951 -1.199556,-0.501951 -0.683752,0 -1.199556,0.186311 -1.199556,0.433285 0,0.143948 0.21075,0.197029 0.915451,0.230573 0.503498,0.02397 1.043298,0.05487 1.199556,0.06867 0.209344,0.01849 0.284105,-0.04219 0.284105,-0.230574 z m -1.623719,-2.89829 c 0.730213,-0.331342 1.523819,-0.322921 2.217525,0.02353 0.47709,0.238271 0.575262,0.252051 0.67469,0.0947 0.168588,-0.266796 0.09045,-0.402996 -0.394749,-0.68806 -0.564271,-0.331524 -1.878091,-0.335938 -2.515244,-0.0084 -1.2013,0.617447 -1.185715,1.124376 0.01778,0.578277 z m 0.23476,-3.281886 c 1.08506,-0.428513 1.8943,-0.481586 2.661635,-0.174559 0.441159,0.176517 0.537154,0.181313 0.631967,0.03157 0.168756,-0.266525 0.143082,-0.342181 -0.190229,-0.560576 -0.557607,-0.365357 -1.541614,-0.368344 -2.661432,-0.0081 -1.06412,0.342346 -1.830901,0.743744 -1.830901,0.958446 0,0.21523 0.398181,0.144479 1.38896,-0.2468 z M 35.572449,38.993863 c 1.111645,-0.256598 1.88271,-1.26374 1.879081,-2.454398 -0.0044,-1.454796 -0.583736,-2.997481 -1.585316,-4.221709 -0.765078,-0.935154 -1.547404,-1.378181 -2.433681,-1.378181 -0.421624,0 -0.592315,0.08812 -1.07003,0.552405 -0.312611,0.303823 -0.66785,0.744186 -0.789421,0.978586 -0.284185,0.547932 -0.392701,2.56123 -0.190537,3.535045 0.207577,0.999897 0.830921,1.982758 1.572015,2.478683 0.978293,0.654655 1.526804,0.761422 2.617889,0.509569 z m 3.901252,-0.266971 c 0,-0.277963 1.793795,-1.995916 2.341914,-2.242897 0.281057,-0.126644 0.906089,-0.294385 1.388959,-0.372758 1.079778,-0.175256 2.362121,0.05472 3.545093,0.635782 0.906023,0.445025 1.007332,0.457426 1.175158,0.143838 0.110881,-0.207184 0.02304,-0.283349 -0.721605,-0.625652 -1.787918,-0.82189 -3.466137,-0.996537 -5.00591,-0.52095 -0.69424,0.214429 -0.9895,0.401415 -1.715905,1.086669 -0.963958,0.909349 -1.449811,1.590246 -1.339619,1.877403 0.08895,0.231795 0.331915,0.245384 0.331915,0.01857 z M 51.53229,36.608475 c 0.874895,-0.411251 1.270581,-0.951847 1.521193,-2.0783 0.368125,-1.654652 -0.0065,-3.25189 -1.007888,-4.296977 -0.458463,-0.478478 -0.604683,-0.556314 -1.045071,-0.556314 -0.439519,0 -0.578503,0.07358 -0.981445,0.519588 -0.258179,0.285774 -0.702979,1.006346 -0.988445,1.60127 -0.468586,0.97656 -0.523998,1.195335 -0.570174,2.251138 -0.04457,1.019136 -0.01458,1.245001 0.233373,1.757198 0.158007,0.326398 0.459334,0.694341 0.677659,0.827471 0.528286,0.322139 1.444757,0.311504 2.160798,-0.02507 z"
       id="path82"
       transform="scale(0.26458333)" />
    <path
       style="fill:#000000;stroke-width:0.126269;fill-opacity:0"
       d="m 54.088369,24.22264 c -0.10829,-0.16005 -0.85657,-1.029673 -1.662844,-1.932497 -1.667503,-1.867182 -1.610414,-1.643257 -0.839248,-3.291853 1.169525,-2.500203 1.926525,-3.497867 3.602367,-4.747629 1.580939,-1.178987 3.539634,-2.024546 6.410181,-2.767243 0.928287,-0.240176 1.247829,-0.261241 2.855607,-0.18825 0.995696,0.0452 2.274171,0.163103 2.841054,0.261999 2.401983,0.41904 5.404001,2.551236 7.078146,5.027282 0.319923,0.473164 0.581677,0.907061 0.581677,0.964215 0,0.05716 -0.71491,-0.258131 -1.588688,-0.700636 -2.153585,-1.09063 -2.530825,-1.189478 -4.872104,-1.276629 -2.309352,-0.08596 -2.840637,-0.005 -5.189281,0.790691 -2.332787,0.79033 -2.818496,1.11158 -5.449717,3.60448 -1.655255,1.568239 -2.77955,2.899597 -3.215266,3.807424 -0.353216,0.735939 -0.35598,0.738186 -0.551884,0.448646 z"
       id="path84"
       transform="scale(0.26458333)" />
    <path
       style="fill:#ffffff;stroke-width:0.126269"
       d="m 32.243404,36.765988 c -0.289235,-0.490881 -0.522496,-2.246821 -0.413915,-3.11587 0.07143,-0.571679 0.177723,-0.784889 0.657167,-1.318146 0.314577,-0.349885 0.700398,-0.668391 0.85738,-0.707791 0.681276,-0.17099 2.115715,0.898346 2.668566,1.989344 0.167405,0.330358 0.304372,0.64718 0.304372,0.704051 0,0.05687 -0.468774,0.101375 -1.04172,0.0989 -0.816089,-0.0035 -1.151116,0.05249 -1.546796,0.258608 -0.593594,0.309221 -1.05571,1.0518 -1.178809,1.894238 l -0.08388,0.574056 z"
       id="path86"
       transform="scale(0.26458333)" />
    <path
       style="fill:#ffffff;stroke-width:0.126269"
       d="m 48.882973,33.717494 c 0.277912,-1.329829 1.052605,-2.821455 1.72418,-3.31981 0.33233,-0.246612 0.343653,-0.246785 0.746643,-0.01143 0.253375,0.147979 0.576378,0.543652 0.848229,1.039064 0.35637,0.649437 0.44902,0.970268 0.492073,1.703962 l 0.05304,0.903883 -0.273237,-0.350775 c -0.395206,-0.507356 -0.932365,-0.740551 -1.705846,-0.740551 -0.84143,0 -1.285037,0.205409 -1.675122,0.775653 l -0.302318,0.441942 z"
       id="path88"
       transform="scale(0.26458333)" />
    <path
       style="fill:#000000;fill-opacity:0;stroke-width:0.126269"
       d="m 63.890079,46.27747 c -3.094676,-0.200983 -5.155888,-0.603213 -5.992254,-1.169343 l -0.430782,-0.291593 -0.0041,-2.07712 c -0.0068,-3.44408 -0.294403,-11.62562 -0.434846,-12.36805 -0.317126,-1.676442 -1.286213,-3.985026 -2.15692,-5.138269 -0.278265,-0.36856 -0.452005,-0.670108 -0.386088,-0.670108 0.06592,0 0.429958,-0.440364 0.808981,-0.978586 0.840866,-1.194051 4.558862,-4.87528 5.610407,-5.554927 0.779941,-0.5041 2.99746,-1.374289 4.448831,-1.745791 1.190291,-0.304674 4.68686,-0.200176 5.709568,0.170636 1.271186,0.460904 3.536702,1.695206 4.086346,2.226328 0.47746,0.461372 0.597405,0.709437 1.134726,2.346806 0.511101,1.557463 0.610014,2.022608 0.662313,3.114538 0.07111,1.484768 -0.117214,2.976596 -0.547864,4.339843 -0.316201,1.000958 -0.377991,1.085873 -3.855683,5.298795 -0.487288,0.590308 -1.09556,1.496206 -1.351714,2.013106 l -0.465734,0.93982 -0.0643,3.605867 c -0.05609,3.145697 -0.09393,3.670323 -0.29652,4.110943 -0.677378,1.473261 -1.376272,1.861798 -3.427255,1.905321 -0.763928,0.01621 -2.135144,-0.01899 -3.047145,-0.07822 z"
       id="path14"
       transform="scale(0.26458333)"
       inkscape:export-xdpi="96"
       inkscape:export-ydpi="96" />
  </g>
</svg>
